<svg width="15" height="15" viewBox="0 0 15 15" fill="none" xmlns="http://www.w3.org/2000/svg">
<path fill-rule="evenodd" clip-rule="evenodd" d="M4.37618 4.56818H3.30862L3.25447 4.89314C3.08344 5.91927 3.32552 6.63874 3.77984 7.09734C4.09697 7.41745 4.48741 7.57939 4.83078 7.64418L5.16238 11.9571H4.41566V12.7349H10.6379V11.9571H9.89118L10.2224 7.65316C10.5213 7.60817 10.7801 7.50617 10.9987 7.35525C11.2994 7.1477 11.4989 6.8652 11.6268 6.57003C11.8772 5.99224 11.8717 5.32667 11.7994 4.89314L11.7453 4.56818H5.15536C5.13044 4.18695 5.1464 3.73554 5.24818 3.35655C5.31469 3.10894 5.40986 2.92253 5.52556 2.80262C5.63098 2.69335 5.76691 2.62374 5.97122 2.62374V1.84596C5.5533 1.84596 5.21608 2.0032 4.96583 2.26257C4.72586 2.51129 4.58284 2.8353 4.49703 3.15481C4.37266 3.61789 4.35175 4.13489 4.37618 4.56818ZM9.44032 7.6793H5.61356L5.94246 11.9571H9.11111L9.44032 7.6793ZM5.19367 6.90152H9.86029C10.1816 6.90152 10.4017 6.82226 10.5569 6.71515C10.714 6.60673 10.8304 6.45173 10.9132 6.26078C11.0356 5.97829 11.0732 5.64108 11.0636 5.34596H3.98298C3.94034 5.98049 4.1261 6.34172 4.33238 6.54994C4.58883 6.8088 4.94591 6.90147 5.19367 6.90152C5.19365 6.90152 5.19369 6.90152 5.19367 6.90152Z" fill="black"/>
<ellipse cx="6.32373" cy="2.25928" rx="0.765625" ry="0.65625" fill="black"/>
</svg>
